HIERARCHY
ROOT hip
{
	OFFSET 0.000000 0.000000 0.000000 
	CHANNELS 6 Xposition Yposition Zposition Xrotation Zrotation Yrotation
	JOINT abdomen
	{
		OFFSET 0.000000 3.402643 0.000000 
		CHANNELS 3 Xrotation Zrotation Yrotation
		JOINT chest
		{
			OFFSET 0.000000 8.438565 -0.680529 
			CHANNELS 3 Xrotation Zrotation Yrotation
			JOINT neck
			{
				OFFSET 0.000000 10.207942 -0.272212 
				CHANNELS 3 Xrotation Zrotation Yrotation
				JOINT head
				{
					OFFSET 0.000000 3.130431 0.000000 
					CHANNELS 3 Xrotation Zrotation Yrotation
					End Site
					{
						OFFSET 0.000000 3.130435 0.000000 
					}
				}
			}
			JOINT lCollar
			{
				OFFSET 3.470700 6.669187 -0.816635 
				CHANNELS 3 Yrotation Zrotation Xrotation
				JOINT lShldr
				{
					OFFSET 3.198488 0.000000 0.000000 
					CHANNELS 3 Zrotation Yrotation Xrotation
					JOINT lForeArm
					{
						OFFSET 10.139888 0.000000 0.000000 
						CHANNELS 3 Yrotation Zrotation Xrotation
						JOINT lHand
						{
							OFFSET 8.370511 0.000000 0.000000 
							CHANNELS 3 Zrotation Yrotation Xrotation
							End Site
							{
								OFFSET 4.083176 0.000000 0.000000 
							}
						}
					}
				}
			}
			JOINT rCollar
			{
				OFFSET -3.470700 6.669187 -0.816635 
				CHANNELS 3 Yrotation Zrotation Xrotation
				JOINT rShldr
				{
					OFFSET -3.198488 0.000000 0.000000 
					CHANNELS 3 Zrotation Yrotation Xrotation
					JOINT rForeArm
					{
						OFFSET -10.139888 0.000000 0.000000 
						CHANNELS 3 Yrotation Zrotation Xrotation
						JOINT rHand
						{
							OFFSET -8.370511 0.000000 0.000000 
							CHANNELS 3 Zrotation Yrotation Xrotation
							End Site
							{
								OFFSET -4.083176 0.000000 0.000000 
							}
						}
					}
				}
			}
		}
	}
	JOINT lThigh
	{
		OFFSET 5.308129 -1.633274 1.361059 
		CHANNELS 3 Xrotation Zrotation Yrotation
		JOINT lShin
		{
			OFFSET -2.041588 -20.007561 0.000000 
			CHANNELS 3 Xrotation Zrotation Yrotation
			JOINT lFoot
			{
				OFFSET 0.000000 -19.190928 -1.224953 
				CHANNELS 3 Xrotation Yrotation Zrotation
				End Site
				{
					OFFSET 0.000000 -2.449906 4.627600 
				}
			}
		}
	}
	JOINT rThigh
	{
		OFFSET -5.308129 -1.633274 1.361059 
		CHANNELS 3 Xrotation Zrotation Yrotation
		JOINT rShin
		{
			OFFSET 2.041588 -20.007561 0.000000 
			CHANNELS 3 Xrotation Zrotation Yrotation
			JOINT rFoot
			{
				OFFSET 0.000000 -19.190928 -1.224953 
				CHANNELS 3 Xrotation Yrotation Zrotation
				End Site
				{
					OFFSET 0.000000 -2.449906 4.627600 
				}
			}
		}
	}
}
MOTION
Frames: 15
Frame Time: 0.033333
-0.086228 51.044498 0.316898 -4.385789 -1.236604 3.600673 0.000000 0.000000 0.000000 -0.273444 0.380855 2.605604 2.688499 0.230177 3.295994 5.507782 0.253536 -0.023478 1.856043 9.875288 -2.787116 10.518680 3.380202 -15.735640 -3.140615 -6.246503 2.775475 2.265291 -9.309145 -10.886446 0.087108 -10.570589 -3.073814 0.995894 -25.248178 0.541961 7.909709 2.105049 2.539356 -15.338574 -4.987771 -9.208563 8.211288 11.151706 7.638303 11.362441 -3.866487 10.901030 -12.399945 0.439207 -4.013849 15.431966 -6.384197 -6.173177 -3.521895 3.513936 -18.381367 -4.198063 -0.271947 7.266683 
-0.123479 51.043617 0.361308 -4.444479 -1.285187 3.576422 0.000000 0.000000 0.000000 -0.224613 0.312498 2.586666 2.712127 0.092447 3.197749 5.097539 0.467873 -0.184914 1.785555 9.802141 -2.722327 10.879666 3.279107 -15.716625 -2.681586 -6.326684 2.773342 2.960873 -9.236928 -11.787568 0.018164 -10.791390 -3.020080 0.962409 -25.003277 0.188712 8.035230 2.016530 2.529035 -15.032082 -4.651834 -8.498509 8.337563 11.209209 7.650507 11.373465 -3.750096 10.919996 -12.447313 0.440608 -4.046315 15.600465 -6.336516 -6.101288 -3.518175 3.511391 -17.678217 -4.364766 -0.282990 7.233918 
-0.184261 51.040722 0.415924 -4.308236 -1.558087 3.574351 0.000000 0.000000 0.000000 -0.322274 0.419915 2.526935 2.451590 0.136779 3.122473 5.322116 0.545978 -0.207082 1.817572 9.845607 -2.908065 11.053251 3.019157 -16.292278 -2.070979 -6.167165 2.759779 3.341123 -9.477486 -12.172833 0.031995 -10.823339 -3.179745 0.847592 -24.905100 -0.069136 8.112100 1.947781 2.526878 -14.640284 -4.280354 -8.653823 8.479692 11.536977 7.792307 10.903288 -3.858540 10.857489 -12.254481 0.468241 -4.378758 15.563076 -6.054130 -5.834793 -3.523326 3.474611 -17.139799 -4.187231 -0.278710 7.231814 
-0.221635 51.029522 0.472226 -4.337445 -1.509339 3.678880 0.000000 0.000000 0.000000 -0.322271 0.332026 2.537195 2.527521 -0.002168 3.067054 5.116987 0.614096 -0.301084 1.642830 9.609885 -2.889977 11.088359 2.841999 -16.425686 -2.316051 -6.180130 2.768447 4.245501 -8.823767 -12.707990 -0.020909 -11.084744 -3.198114 0.729344 -24.867100 0.360005 8.057063 2.150051 2.541087 -15.077754 -4.429974 -8.459908 8.695918 11.499488 7.744362 10.641566 -3.818644 10.753280 -12.188244 0.482522 -4.523104 15.659698 -6.024364 -5.817239 -3.525687 3.407272 -17.225437 -4.380485 -0.304424 7.256955 
-0.226417 51.021595 0.531549 -4.317702 -1.402261 3.894892 0.000000 0.000000 0.000000 -0.332035 0.273433 2.547244 2.423509 0.052547 2.834167 5.205060 0.185221 -0.274671 1.615984 9.542030 -2.925895 10.745316 2.577944 -16.929197 -3.451038 -6.083186 2.765185 4.554487 -8.422517 -12.157243 -0.144005 -11.166254 -3.262992 0.752199 -25.062105 0.227566 8.347109 1.981419 2.529587 -14.868691 -4.620241 -8.608539 8.553077 11.444202 7.651451 10.853275 -3.845966 10.793807 -12.279851 0.478006 -4.461134 15.758918 -6.103205 -5.951106 -3.522499 3.444942 -17.431414 -4.449443 -0.304095 7.290411 
-0.229059 51.019829 0.581118 -4.210429 -1.499849 4.153335 0.000000 0.000000 0.000000 -0.419933 0.410145 2.409103 2.396036 -0.125691 2.755506 5.107388 0.253434 -0.240093 1.349475 9.241989 -3.073418 10.876538 2.699706 -16.152327 -3.958799 -6.457688 2.782623 4.543102 -8.550457 -11.884170 -0.393298 -11.241243 -3.415826 0.595765 -24.701559 0.542160 7.843900 2.240933 2.543162 -15.174809 -4.172729 -8.422694 8.189164 11.557934 7.516943 11.305344 -3.867217 10.495783 -12.553988 0.474345 -4.291717 15.823850 -6.013585 -5.842282 -3.522921 3.338629 -16.616503 -4.400607 -0.301279 7.407013 
-0.249697 51.011772 0.638377 -4.229767 -1.392682 4.233819 0.000000 0.000000 0.000000 -0.390628 0.234370 2.459340 2.364960 -0.036545 2.615407 5.126949 0.087729 -0.259236 1.380233 9.289792 -3.045256 10.505053 2.436264 -16.608501 -4.475711 -6.336298 2.782347 4.293652 -8.654362 -11.010571 -0.404247 -11.259500 -3.395379 0.551678 -24.770409 0.762752 7.845195 2.308208 2.544847 -14.868376 -4.228535 -8.731929 8.538663 11.526628 7.604171 10.767118 -3.837353 10.362183 -12.347173 0.484085 -4.491489 15.901886 -6.023371 -5.773470 -3.510005 3.278693 -16.876814 -4.747007 -0.320983 7.406298 
-0.259514 51.012283 0.691960 -4.200514 -1.421953 4.381735 0.000000 0.000000 0.000000 -0.400393 0.185542 2.401047 2.285642 -0.058218 2.533389 5.380792 0.370507 -0.304065 1.277537 9.266014 -3.084563 10.335629 2.397437 -16.792385 -4.867001 -6.296155 2.779968 4.763698 -8.458117 -10.762441 -0.427088 -11.219162 -3.414044 0.715309 -24.877333 0.565490 7.950278 2.181239 2.538924 -15.065271 -3.939448 -8.318171 8.427219 11.679675 7.720603 10.961814 -3.905391 10.079050 -12.443206 0.480674 -4.352634 15.883272 -5.886827 -5.775024 -3.519287 3.385934 -18.034163 -4.668359 -0.330545 7.336896 
-0.266559 51.010773 0.725321 -4.073833 -1.587777 4.419667 0.000000 0.000000 0.000000 -0.488289 0.332019 2.350686 2.412032 -0.263865 2.588753 4.960679 0.682213 -0.404757 1.182177 8.976346 -3.207387 10.667985 2.496042 -16.239321 -4.658072 -6.602100 2.799406 4.909975 -8.585773 -11.582042 -0.443655 -11.228521 -3.542682 0.457713 -24.614613 0.966615 7.692143 2.484114 2.556231 -15.629522 -3.697085 -8.340198 8.163728 11.826315 7.652555 11.234907 -3.991861 10.119803 -12.620827 0.475109 -4.324694 15.864559 -5.819183 -5.681686 -3.524314 3.328661 -17.035957 -4.549956 -0.291454 7.403945 
-0.269329 51.007759 0.783990 -4.151853 -1.519441 4.455948 0.000000 0.000000 0.000000 -0.419925 0.205073 2.352012 2.320665 -0.177929 2.514048 5.175625 0.545897 -0.403791 1.199810 9.142701 -3.114663 10.378774 2.486416 -16.595785 -4.574627 -6.372424 2.781394 4.648498 -8.504604 -10.855007 -0.349588 -11.321167 -3.447604 0.510293 -24.711979 0.833082 8.003419 2.419622 2.557564 -15.085734 -4.058459 -8.661923 8.524496 11.758134 7.695783 10.853217 -3.942652 10.083949 -12.498543 0.489320 -4.425133 16.018806 -5.857199 -5.706879 -3.518660 3.307554 -16.995859 -4.718311 -0.324360 7.446668 
-0.260898 51.001205 0.844784 -4.152007 -1.597361 4.549491 0.000000 0.000000 0.000000 -0.458990 0.292959 2.282809 2.505135 -0.218229 2.451417 4.911705 0.847847 -0.474620 1.213277 9.190617 -3.185496 10.519864 2.525933 -16.354372 -4.714801 -6.503864 2.790377 4.498151 -8.465241 -11.255530 -0.359939 -11.193300 -3.495094 0.258454 -24.790447 0.965743 8.287155 2.442351 2.558755 -15.118774 -4.139227 -8.663610 8.598907 11.793303 7.644705 10.790480 -3.904216 9.975001 -12.562269 0.485304 -4.504187 16.196184 -5.838689 -5.759284 -3.523983 3.416285 -16.551504 -4.811273 -0.329309 7.425433 
-0.250453 50.988117 0.870771 -4.132353 -1.538959 4.554493 0.000000 0.000000 0.000000 -0.468755 0.263663 2.302531 2.521313 -0.150337 2.443883 5.117066 0.477630 -0.370895 1.247757 9.168848 -3.203665 10.529365 2.297606 -16.830557 -4.103539 -6.356295 2.784494 4.100153 -8.862311 -11.322789 -0.480289 -11.470441 -3.534108 0.552176 -24.594545 0.724083 7.895536 2.393301 2.553154 -15.293840 -3.750641 -8.160053 8.645323 11.682646 7.531424 10.727365 -3.836813 10.131054 -12.546267 0.511604 -4.643105 16.217550 -5.897517 -5.820888 -3.517376 3.384834 -16.452354 -4.948372 -0.346948 7.473994 
-0.226291 50.982079 0.917460 -4.180823 -1.334332 4.560394 0.000000 0.000000 0.000000 -0.458985 0.087888 2.343046 2.535509 -0.123070 2.374405 5.224501 0.458186 -0.388380 1.282846 9.088671 -3.180334 10.782766 2.158777 -16.777596 -3.919971 -6.478065 2.785120 4.185066 -8.651450 -11.395154 -0.606452 -11.531581 -3.531734 0.519699 -24.458092 0.842945 7.770301 2.482532 2.554796 -15.256471 -3.728303 -8.461114 8.929089 11.439010 7.515181 10.393654 -3.777104 10.150169 -12.436856 0.503297 -4.657005 16.313843 -6.054036 -5.832716 -3.512165 3.259213 -16.631920 -5.136907 -0.357625 7.569064 
-0.221129 50.975281 0.944377 -4.103008 -1.519535 4.591372 0.000000 0.000000 0.000000 -0.507820 0.302722 2.311770 2.467267 0.006240 2.389274 5.380842 0.185253 -0.283868 1.355537 9.503492 -3.281471 10.456199 2.164459 -16.452700 -3.952654 -6.632248 2.794456 4.154364 -8.633820 -11.832956 -0.685724 -11.399876 -3.639611 0.341314 -24.409193 0.787096 7.701016 2.445124 2.560556 -15.311472 -3.644227 -8.072572 8.773211 11.654387 7.571348 10.526653 -3.833586 10.068189 -12.510609 0.533260 -4.773263 16.257166 -5.897819 -5.760564 -3.513516 3.318412 -16.634489 -5.149498 -0.348677 7.541387 
-0.197976 50.982841 0.979613 -4.112632 -1.441592 4.683689 0.000000 0.000000 0.000000 -0.488288 0.302723 2.311873 2.458767 -0.015121 2.369717 5.429667 0.204764 -0.235964 1.253176 9.421722 -3.262359 10.496794 2.140836 -16.938643 -3.928869 -6.438841 2.786138 4.048925 -8.679621 -11.250728 -0.738994 -11.396498 -3.630075 0.364828 -24.604141 0.615700 7.863622 2.259345 2.550322 -15.248210 -3.708110 -8.226319 9.068758 11.520793 7.521602 10.036241 -3.837972 9.996518 -12.344049 0.510349 -4.739422 16.343586 -5.985316 -5.897098 -3.518344 3.355172 -16.695196 -5.026795 -0.359023 7.587311 
